<?xml version="1.0"?><svg width="640" height="480" xmlns="http://www.w3.org/2000/svg">
 <title>Michigan Map Outline</title>
 <g>
  <title>Layer 1</title>
  <path id="path1390" fill="none" d="m84.247986,167.778992c2.889008,-2.612 6.622009,-3.116989 11.488007,-3.894989c4.867004,-0.778 6.423004,-2.917999 8.372009,-4.867004c1.947998,-1.947998 6.424988,-6.231003 11.097992,-4.479004c4.673004,1.752014 10.320007,-0.389999 12.072021,-1.751999c1.751984,-1.362 4.669983,-1.751999 6.034973,-4.088989c1.365021,-2.336014 2.140015,-2.339005 4.673004,-2.143005s4.673004,-1.751999 5.063019,-3.503998c0.389984,-1.751999 1.751984,-3.695999 3.505005,-4.477005c1.751984,-0.781006 2.922974,-1.751999 3.894989,-3.311005c0.971985,-1.557983 2.725006,-1.94899 3.699005,-2.14299s2.53299,-1.166 5.062988,-3.891998c2.529999,-2.727005 4.085999,-5.061005 7.203003,-5.257004s3.30899,-0.779999 4.673004,-1.947998c1.36499,-1.167999 4.868988,-2.336006 9.735992,-1.945999c4.867004,0.389999 2.333984,0.001999 4.867004,0.389999c2.531982,0.388 2.338013,3.112 -0.388,3.307999c-2.72699,0.195999 -2.919983,0.778 -5.062988,0.584c0.19397,1.557999 -0.584015,2.335999 -2.336029,3.503998c-1.751984,1.167999 -3.698975,2.139999 -4.866974,3.505005c-1.16803,1.363998 -0.780029,1.947998 -2.143005,2.141998c-1.362,0.194 -2.143005,0.778 -2.335999,2.531006c-0.194,1.751984 -0.390015,0.972 -1.167999,1.751984c-0.778015,0.781006 -0.388,0.778015 -0.778015,2.335999c-0.389984,1.559006 -0.777985,0.196014 -1.751984,0.975006c-0.973999,0.778 -0.779999,2.917999 -0.973999,3.697998s-0.778015,0.977005 -2.529999,1.365005c-0.390015,2.529999 -0.779999,3.697998 -1.364014,4.867004c-0.583984,1.167999 -0.975006,2.334 -0.583984,4.283005c0.389984,1.947983 0.195984,1.751984 -0.194,2.72699s0.38797,1.945999 1.362,0.778c0.973999,-1.167999 0.583984,-2.529999 1.751984,-3.697998c1.167999,-1.167999 3.117004,-2.141006 3.894989,-3.699005c0.778015,-1.559006 2.72403,-1.363998 3.699005,-2.72699c0.973999,-1.362 3.701019,-0.778 1.558014,0.584c-2.141998,1.362 -1.946014,1.75 -2.920013,1.945984s-0.388,0.584015 -0.777985,1.752014c-0.390015,1.167999 -1.36499,0.778 -0.390015,1.167999c0.973999,0.389999 0.779999,0.389999 1.558014,-0.194c0.777985,-0.584 0.388,0.195999 0.777985,-1.362c0.390015,-1.557999 0.194,-1.556 1.752014,-1.751999c1.55899,-0.195999 3.894989,-0.388 6.424988,0c2.529999,0.387985 1.556,0.582001 2.529999,0.387985c0.975006,-0.193985 0.972015,0.586014 0,1.949005c-0.971985,1.362 -0.973999,2.727005 0,1.752014c0.975006,-0.974014 1.167999,0 1.55899,-1.558014c0.390015,-1.55899 -0.38797,-1.36499 0.390015,-1.55899c0.778015,-0.194 0.582001,-0.196014 0.972015,1.167999c0.390991,1.363998 1.167999,1.753998 1.167999,0.779999s-1.157013,-1.880005 -0.388,-1.751999c2.335999,0.388 3.501984,-0.778 3.891998,1.167999c0.390991,1.945999 0.777985,2.917999 2.92099,2.723999s2.140015,0.39299 2.335999,2.533005s0.585999,1.167999 1.947998,2.335999c1.362,1.167999 1.360016,0.584 1.556,1.945999s-0.779999,1.75 0.584015,1.945999c1.36499,0.195999 1.948975,0.585999 2.72699,1.947998c0.777985,1.362 1.751984,1.167999 1.751984,4.088989s3.311005,2.528015 4.08902,2.725006c0.778015,0.196014 3.114014,0.391998 4.28299,-0.387985c1.167999,-0.780014 2.53299,0 4.285004,-1.557999c1.752014,-1.559021 3.891998,-1.752014 3.697998,0.583984s2.140015,1.947998 3.11499,2.143005c0.973999,0.194 1.364014,0.389984 2.142029,0c0.777985,-0.390015 -0.002014,-0.001999 0.777985,-1.36499c0.779999,-1.362 0.779999,-1.946014 1.949005,-0.778015c1.167999,1.167999 0.971985,1.167999 2.140015,1.751999c1.167969,0.584 1.947998,1.945999 2.53299,1.362015c0.584015,-0.584015 0.972015,-0.972015 1.556,-2.529999c0.583984,-1.558014 1.556,-2.530014 2.92099,-2.920013c1.363983,-0.389999 1.363983,-2.529999 2.72699,-2.529999c1.36203,0 2.143036,-0.584 2.143036,-0.584s0.074982,-0.550003 1.751984,-1.557999c0.972015,-0.584 2.334015,-1.556 3.30899,-1.945999s1.363983,-0.779999 1.363983,-1.559006c0,-0.778 1.556,-1.362 2.725006,-1.167999c1.167999,0.194 4.618011,-0.093994 6.972015,-0.713989c2.355011,-0.621002 8.798981,-0.372009 10.660004,-0.372009c1.862,0 7.807983,0 11.777985,-2.852997c3.970032,-2.852005 6.078033,-2.975006 8.55603,-2.975006c2.478973,0 2.481964,0.494995 3.597015,-0.248993c1.112976,-0.744003 3.097961,-1.485001 1.609985,1.985001c-1.487,3.470993 -1.113037,9.421005 -0.990051,11.280991c0.123047,1.859009 1.487061,1.859009 1.734009,2.108002c0.246033,0.249008 5.585022,0.369995 6.20105,0.124008c0.615967,-0.246994 -0.004028,0.994995 0.615967,1.240997c0.620972,0.246002 1.61499,0 3.22699,-0.744003c1.610046,-0.743988 2.601013,-2.602997 3.965027,-2.479996c1.36499,0.123001 2.359009,0.994995 2.359009,2.729004c0,1.733994 1.237,1.979996 3.098999,0.245987c1.862,-1.733994 1.240967,-0.86499 2.107971,-0.990005s0,-0.866989 0.621033,-1.735992c0.619995,-0.869003 1.609985,-0.617996 2.230957,-0.744003c0.620056,-0.125 0.246033,-0.373993 0.743042,-1.240997c0.497986,-0.867004 0.625,-0.249008 1.117981,0s0.616028,0.869003 1.235962,1.613007c0.621033,0.744003 0.867004,1.485001 1.365051,2.354004c0.496948,0.869995 1.363953,2.72699 1.984009,3.718994c0.620972,0.992996 0.492981,1.485001 0.369995,2.231003s1.245972,1.366989 1.61499,0.125s0.984985,-0.623001 -0.127991,-1.985001c-1.113037,-1.362015 -1.359009,-1.860001 -1.856995,-2.727005c-0.497009,-0.866989 -0.871033,-1.487991 -0.994019,-2.231995c-0.124023,-0.744003 0,-0.246002 -0.867004,-1.115997c-0.867004,-0.869003 -1.359985,-0.744003 -1.112976,-1.736008c0.245972,-0.991989 0.870972,-0.37001 1.363953,-1.238998c0.492004,-0.869003 0.743042,-1.487991 2.478027,-0.744003c1.734009,0.744003 3.838013,0.369995 2.477966,2.477997c-1.359009,2.108017 -2.600952,3.350006 -1.112976,4.960007c1.488037,1.611008 2.359009,3.594009 1.984985,4.462997c-0.373962,0.869995 0.122986,1.860016 0.370056,2.480011c0.245972,0.620987 0.126953,1.612991 -1.734009,1.735992c-1.862061,0.123001 -3.847046,2.108002 -1.862061,2.603012c1.985046,0.494995 1.488037,0.498001 2.853027,0.371979s1.487,1.859009 2.231018,1.859009s4.576965,-0.51799 1.487,1.115997c-2.108032,1.116013 1.984985,3.347 2.729004,3.719009c0.742981,0.371994 0.373962,0.867004 1.364014,1.238983c0.98999,0.372009 1.363953,-0.371979 2.107971,0.249008c0.742981,0.621002 0.994019,1.611008 0,2.231003c-0.994995,0.621002 0.245972,0.621002 -1.240967,0.249008c-1.488037,-0.372009 -1.616028,-2.108017 -2.231018,-0.372009c-0.616028,1.736008 -1.241028,1.363998 -2.231018,0.249008s-1.487976,-1.362 -3.221985,-0.123016c-1.734009,1.238998 -2.359009,0.493011 -4.093994,-0.125c-1.734009,-0.618988 -2.231018,-0.248993 -3.098999,0.372009s-1.984985,0.498001 -1.487,1.240997c0.497009,0.744003 1.860962,1.734009 0.619995,1.610992c-1.241028,-0.122986 -2.729004,0 -2.231018,-1.115997c0.497986,-1.115997 1.862,-0.869003 0.744019,-2.108002c-1.117981,-1.238983 -1.862,-0.371994 -2.60498,0c-0.744019,0.372009 -2.725037,1.116013 -2.725037,-0.371994s-0.502014,-0.866989 -1.61499,-0.866989s-2.60199,1.113983 -2.60199,0.123993s0.246948,-1.860001 -0.743042,-0.744003s-1.112976,0.619003 -0.98999,2.231003c0.123047,1.613007 -1.369019,1.735992 -0.994995,3.473007s0.497009,1.240982 0.374023,2.85199s-0.123047,1.487991 0.744019,1.487991s-0.123047,1.859009 -0.867065,1.611008c0,0 -2.729004,-0.001999 -3.22699,-0.992996c-0.496948,-0.98999 -1.983948,-2.106003 -2.107971,-2.477997c-0.122986,-0.371994 -0.250977,-0.494995 -1.364014,-0.744003c-1.112976,-0.249008 -1.117981,-0.497009 -1.609985,-1.240997c-0.493042,-0.744003 0.127991,-0.740997 -0.98999,-0.990005c-1.117981,-0.248993 -1.606018,-0.123001 -0.98999,-0.992004c0.615967,-0.869995 0.496948,-0.618988 1.486938,-0.371994s3.098999,-0.246994 0.867065,-1.115997s-2.359009,0.371994 -3.847046,-0.249008c-1.487976,-0.621002 -2.605957,-0.123993 -3.843018,-0.867004s-1.363953,-1.363983 -3.718964,-0.992981c-2.354004,0.371994 -3.723999,-0.497009 -4.960999,-1.363998c-1.236023,-0.867004 -4.335022,0 -5.453003,0.248993c-1.117004,0.248993 -2.605011,-0.37001 -4.092987,1.985001c-1.488007,2.354004 -2.848022,5.578995 -6.817017,5.207001c-3.971008,-0.372009 -3.22702,-0.494995 -5.088989,0.992996c-1.861023,1.487 -4.46701,1.48999 -3.472992,-0.124008c0.994965,-1.612991 0.994965,-2.230988 -1.113007,-1.735992s-0.619995,1.240997 -3.101013,1.36499c-2.47998,0.123016 -1.613007,0.618011 -2.729004,0.990021c-1.115997,0.371979 -0.990997,0.001999 -1.983002,-0.247009c-0.991974,-0.248993 -0.620972,-0.123001 -1.115997,0.743988c-0.494995,0.86702 -0.992004,0.493011 -2.108002,0.990021c-1.115997,0.497986 -1.612976,1.612991 -1.735992,3.100983c-0.123993,1.488007 -0.247009,5.205017 -2.477997,5.330017s0,1.715988 -3.718994,2.107986c-2.356995,0.249008 -1.610992,1.117996 -1.48703,1.241013c0.123016,0.123993 -0.127991,0.98999 -0.746979,0.98999c-0.618011,0 -1.363983,0.746002 -1.115997,1.612991c0.248993,0.86702 -0.246002,1.488007 -0.990021,1.611008c-0.743988,0.123001 -0.743988,0.990005 -0.620972,1.983002c0.123993,0.992004 0.620972,1.240997 -1.239014,-0.123001c-1.858978,-1.36499 -2.85199,-3.100998 -0.993011,-2.852997c1.860016,0.249008 1.239014,-0.493011 1.239014,-1.362c0,-0.869995 1.10199,-1.246002 0.992004,-2.231003c-0.249023,-2.234009 3.718994,-0.375 2.480011,-2.35701c-0.912994,-1.459991 0.992981,-3.595993 1.487976,-4.339996c0.495026,-0.744003 -1.366974,-3.344986 -3.100983,-0.617996s-3.473022,3.101013 -4.463013,2.231003c-2.286011,-2.008011 -3.223999,-2.559998 -3.098999,0.744003c0.123993,3.222 -0.494995,2.600998 -1.115997,3.470001c-0.621002,0.869995 -1.613007,1.733994 -1.363983,2.604004s-0.621033,0.621002 -2.231018,0.992981c-3.791992,0.876007 -1.721008,-0.036987 -2.35498,-2.35498c-0.125,-1.985001 -1.074036,-3.662018 0.98996,-5.209c0.993011,-0.744003 -0.248993,-6.570999 -1.735992,-2.604019c0,0 -1.115997,1.367004 -1.115997,2.729004c0,1.362 -1.735992,0.619003 -1.486969,3.471008c0.248962,2.852005 -0.744019,3.847 -2.357025,5.458008c-1.613007,1.610992 -3.84198,1.984985 -3.718994,4.21698s-2.356995,1.608002 -2.356995,4.709c0,3.101013 -1.860016,3.722 -1.860016,5.209015c0,1.487991 -1.362,3.219986 -1.981995,4.337997c-0.621002,1.117996 -2.105988,2.602997 -2.230988,4.338989s-0.993011,3.098999 -2.108002,4.463013c-0.882996,1.079987 -3.713989,3.173996 -3.726013,6.244995c-0.001984,0.604004 -2.442993,1.007996 -2.919983,0.292007s-4.280029,-4.249008 -2.213013,-6.396011c2.066986,-2.147003 2.46402,-4.453995 2.623993,-6.283997s-1.192993,-3.580002 -2.942993,-1.830002s-6.683014,2.384995 -5.169983,-1.909988c1.51297,-4.294006 3.897003,-5.325012 1.432983,-7.792007c-2.463989,-2.466003 -0.47699,-4.054001 0.079987,-5.567001c0.557007,-1.513 -1.964966,-6.875 -5.783997,-6.875s-4.072998,0.37001 -5.840973,-0.072998c-1.374023,-0.345001 -2.13501,-3.059998 -1.022003,-4.016006s1.315979,-9.378006 -5.841003,-8.103989c-7.157013,1.272995 -15.472015,0.216995 -17.858002,-0.5c-2.386993,-0.716003 -5.567017,1.035995 -7.794006,-1.51001c-2.22699,-2.54599 -5.735992,-3.627991 -9.394012,-4.341995c-2.283997,-0.444992 -2.767975,-1.830002 -6.91098,-2.896011c-2.783997,-0.71698 -6.098999,-1.792984 -9.882019,-3.237991c-5.548981,-2.117996 -6.936005,-0.803009 -8.177002,-2.043991c-1.98999,-1.990005 -4.891998,-1.971008 -6.789978,-2.48201c-2.546021,-0.686996 -7.815002,-0.932999 -6.425018,-4.307999c1.53302,-3.723999 -1.022003,-6.937012 -2.117981,-7.302002c-1.625,-0.541 -2.891022,-0.492996 -5.914001,-1.605988c-3.028015,-1.109009 -3.112,-2.560013 -2.585022,-3.037018l0,0l0,0z" stroke="#000000" stroke-width="5"/>
  <path id="path1414" fill="none" d="m252.391998,426.825012c0.080017,-2.705994 2.466003,-7.794006 5.647003,-11.45401c3.181,-3.658997 5.406982,-15.108002 5.963989,-22.428986c0.261017,-3.39502 0.770996,-7.022003 0.91803,-10.084991c7.592987,-2.117004 2.440979,-1.314026 -0.072998,-1.679016c0.031982,-1.169006 -0.160034,-5.46701 -0.685028,-7.730011c-0.378998,-1.628967 -1.728973,-5.128967 -1.286987,-7.237c2.773987,-0.36499 2.628998,-1.53299 -0.990021,-1.109009c-0.542999,-1.552002 -1.158997,-3.039001 -1.936981,-4.621979c-1.98999,-4.057983 -0.878998,-2.943024 0.31601,-3.341003c1.195984,-0.395996 3.736969,-3.582001 0,-1.988983s-2.705994,0 -3.500031,-1.27301s-1.513,-1.906982 -1.749969,-2.861023s0.79599,-1.751984 1.432983,-1.988983c0.636017,-0.237 1.033997,-2.386993 -0.557007,-1.67099c-1.589996,0.71701 -2.307007,-0.639008 -2.783997,-2.705994c-0.47699,-2.06601 -1.830017,-5.480011 -2.942993,-6.835022c-1.113007,-1.355011 -3.261017,-5.015991 0.716003,-8.355011c3.97699,-3.340973 2.544006,-8.583984 2.067017,-10.098969c-0.47702,-1.515991 -1.271027,-3.660034 -2.147034,-4.614014c-0.875977,-0.953003 -1.96698,-2.847992 -1.589966,-3.106995s2.858978,2.148987 1.763977,-0.98999c4.161987,-5.330017 -1.98999,0.383972 -2.117981,0.145966c-0.235016,-0.437958 -0.465027,-0.803986 0.036987,-1.306c0.794006,-0.793976 2.224976,-1.350983 3.101013,-3.020996c0.875977,-1.669983 2.148987,-3.020996 2.705994,-5.566986c0.557007,-2.546997 1.51001,-3.181 2.145996,-5.170013c0.636993,-1.98999 0.398987,-2.701965 1.75,-2.623962c1.35199,0.076965 2.544006,-1.196045 0.953979,-1.753021c0,0 -1.589966,0.087006 -1.03299,-2.222015c0.557007,-2.309998 0.47702,-3.020996 0.31601,-4.21698c-0.158997,-1.195007 -0.314026,-3.582001 0.398987,-3.423004c0.715027,0.160004 2.783997,0.319 0.557007,-1.350983c-2.229004,-1.670013 -0.876007,-1.515015 -0.955994,-1.989014c-0.07901,-0.475006 -0.237,-0.479004 -0.953003,-0.794006c-0.71701,-0.316986 -0.240021,-2.940979 1.431,-1.510986c1.670013,1.430969 2.230988,1.587982 3.421997,1.510986c1.19101,-0.080017 2.860992,-1.593018 0.634979,-1.98999c-2.227966,-0.397003 -2.463959,-0.557007 -2.463959,-0.95401s-0.879028,-1.19101 -1.593018,-0.873993c-0.714996,0.317017 -1.437988,-1.984985 0.478973,-1.113983c0.872009,0.396973 0.954041,-0.157013 1.114044,-0.557037c0.158966,-0.398987 1.509979,-0.633972 1.669983,0.080017c0.158997,0.71402 0.395996,1.031006 0.556976,1.748016c0.159027,0.715973 0.794006,1.112976 1.511017,0.79599c0.716003,-0.316986 1.751984,-0.716003 0.876007,-1.75s-0.722015,-0.160004 -1.355011,-0.637024c-0.63501,-0.47699 -0.397003,-0.953979 -0.077972,-1.509979c0.319977,-0.557007 0.004974,-1.19101 0.319977,-2.623993c0.313995,-1.433014 0.479004,-3.340027 -0.160004,-4.057007c-0.638977,-0.71701 -0.159973,-3.101013 0.794006,-2.863983s2.468994,1.587982 1.752991,1.431c-0.71698,-0.157013 -1.35498,1.274963 -0.640015,1.513c0.717041,0.237 2.310028,0.713989 2.866028,0.237s1.026001,-1.51004 0.154999,-2.387024c-0.872009,-0.875977 -0.71701,-2.386017 -0.237,-3.02301c0.479004,-0.636993 1.194977,-0.79599 1.988983,0.080017c0.794006,0.875977 1.748016,0.633972 1.748016,1.589996s0.953003,1.751984 1.272003,0.240021c0.320007,-1.513 0.640015,-2.307007 1.036011,-2.864014c0.396973,-0.557007 0.953979,-2.307007 1.906982,-2.307007c0.953979,0 0.479004,-0.554016 0.479004,-2.067017s1.036011,-2.381989 1.669983,-3.337982c0.63501,-0.956009 0.794006,-2.466003 1.031006,-3.5s1.036011,-1.589996 1.98999,-1.75c0.953033,-0.160004 1.428009,0.479004 0.475037,1.272995c-0.954041,0.794006 -1.351013,1.591995 -0.475037,2.863007s0.876038,2.942993 0.395996,3.896988c-0.478973,0.95401 -2.705963,3.183014 -1.112976,3.340027c1.593018,0.157959 1.428986,1.352966 0.634979,2.783997s-1.747986,3.339966 -1.190979,5.487s0.561981,2.942993 1.433014,3.419983c0.871979,0.47699 0.237,0.554016 0.953979,-0.160004c0.71701,-0.713989 1.108002,-1.270996 1.587982,0.399017c0.479034,1.669983 -0.076996,1.270996 1.195038,0.713989c1.27298,-0.557007 1.268982,-1.348022 1.35199,-2.384003c0.082001,-1.03598 0.953003,-1.27298 1.433014,-2.306976s0.478973,-1.590027 0.71698,-2.387024c0.235992,-0.796021 1.272003,-0.873993 1.509979,1.113007s0.160034,2.781006 1.273041,2.623993s0.948975,-0.634003 1.190979,-0.794006c0.240997,-0.159973 0.475006,0.157013 0.953003,0.713989c0.479004,0.557037 0.804016,0.954041 0.958984,0c0.154022,-0.953979 -0.721985,-1.430969 -1.515991,-1.987976c-0.793976,-0.557007 -1.269012,-1.03299 -1.031006,-2.22702s0.557007,-1.352966 0,-2.386963s-0.794006,-0.794037 -1.113007,-1.51004c-0.319,-0.71698 -0.319,-1.751984 -0.319,-3.182983s-0.871979,-2.940994 0.082001,-3.020996c0.95401,-0.080002 1.588013,0.716003 1.748016,2.22699c0.158997,1.51001 0.634003,1.907013 0.634003,3.101013s0.242004,5.48999 1.036011,5.48999s1.268982,-1.115997 1.190002,-2.54599c-0.076996,-1.431 -0.634033,-2.22702 -0.475037,-3.897003c0.160034,-1.670013 0.083008,-3.263 -1.350983,-5.25c-1.433014,-1.987 -2.86499,-3.654999 -2.86499,-5.248001c0,-1.591995 -0.95401,-4.216003 0.319,-5.806992s2.22699,-3.897003 3.737,-1.590012s1.432983,1.351013 1.988983,1.907013s1.27301,1.350998 1.113007,2.306992c-0.158997,0.956009 -0.395996,1.751999 0.397003,2.069c0.794006,0.317001 1.751984,0.953995 1.592987,-0.240005c-0.159973,-1.192978 -0.159973,-0.955994 -0.479004,-1.909988s0,-1.193008 -0.716003,-1.51001c-0.71698,-0.317001 -0.634979,-1.90799 0.639038,-0.873993c1.271973,1.033997 1.112976,0.871994 2.066986,1.747986c0.953003,0.876007 4.535004,0.083008 2.385986,-0.793991c-2.14798,-0.875992 -1.751984,-1.352997 -1.751984,-1.910004s-0.395996,-0.319 -1.907013,-0.636993c-1.510986,-0.317001 -2.230988,-0.160004 -2.705994,-1.034012c-0.475006,-0.873993 -0.237,-1.513 -1.19101,-1.272995c-0.953003,0.240005 -0.158997,-1.268997 0.794006,-1.748001c0.95401,-0.479004 1.671021,-1.113998 3.104004,-0.79599c1.432983,0.316986 1.989014,-0.398987 3.5,-0.160004c1.510986,0.238998 2.062988,0.001999 2.860992,-0.873993s1.756989,-0.796005 0.241028,-1.75c-1.515015,-0.95401 -0.639038,-0.956009 -0.639038,-1.27301c0,-0.317001 -0.313995,-0.160004 -1.587982,0.080002s-0.562012,1.352997 -2.309021,-0.556992c-1.747986,-1.910019 -1.98999,-2.46701 -2.546997,-4.137009c-0.556976,-1.669998 -1.747986,-4.850998 0.71701,-6.681c2.463989,-1.830002 3.495026,-2.703995 4.134003,-3.5c0.639984,-0.79599 1.27301,-1.75 0.160004,-2.386993s0.397003,-1.75 2.22702,-1.113007c1.829987,0.636002 2.066986,0.319 3.020966,0.238998c0.953033,-0.080002 0.958008,0.319 0.798035,-1.033997c-0.159027,-1.352997 0.552979,-2.783005 3.259003,-0.160004c2.705994,2.623993 3.737,1.669998 4.850983,2.227005s2.865997,1.268997 3.582001,2.383987c0.71698,1.116013 3.098999,1.432999 5.011017,0.399017s4.937958,-0.397003 7.08197,1.192993c2.146027,1.589996 2.300018,1.985001 2.541992,4.134003s1.675018,3.579987 5.572021,3.419998c3.895996,-0.160004 4.376007,-0.082993 5.886993,1.987c1.51001,2.069 3.975006,1.591995 5.170013,1.830002s3.106995,1.352997 4.457977,1.75c1.35202,0.397003 2.067017,1.270996 2.861023,0.713989s1.43399,-0.556992 2.148987,-0.396988c0.71701,0.160004 1.907013,1.035995 1.031006,1.432999s-0.237,1.352997 1.03598,1.113998c1.27301,-0.240005 1.511017,-0.796005 1.351013,0.953995c-0.158997,1.75 -0.067993,0.955994 0.246002,2.069c0.315002,1.114014 0.393005,1.350998 1.428986,2.623993c1.036011,1.27301 1.19101,1.351013 2.067017,2.784012c0.876007,1.432999 1.514984,3.100998 -0.078003,3.419998c-1.59201,0.319 -1.82901,0.317001 -2.385986,1.75c-0.558014,1.432999 -1.511017,1.828003 -2.228027,2.464005c-0.715973,0.636993 -0.395996,2.22699 1.990021,4.137009c2.385986,1.910004 4.057007,3.421997 5.406982,4.692993s1.670013,6.043976 1.907013,8.270996c0.237,2.22702 0.63501,4.131989 -0.71701,5.725006c-1.15799,1.368988 -0.798004,3.145996 -0.268982,4.024994c0.086975,0.144012 0.177979,0.263 0.268982,0.35202c-5.041992,2.881958 -1.391998,1.932983 0.799011,2.662964c0.401001,1.20401 1.264984,2.751007 1.113007,3.541016c-0.319,1.669983 -1.433014,3.181 -1.59201,3.181c-1.570007,-0.005005 -1.510986,0.953003 -1.510986,2.386993c0,0.794006 -0.95401,1.51001 -1.27301,0.716003s-0.237,-1.984009 -0.794006,-2.067017c-0.557007,-0.082001 0.242004,-0.638977 -0.557007,-0.082001s-1.510986,0.23703 -1.27298,2.227997c0.237,1.989014 -1.433014,3.098999 -1.272003,5.407043c0.158997,2.30896 1.354004,5.963989 -1.90802,7.953979c0,0 -2.148987,0.483002 -2.86499,2.627991c-0.71701,2.145996 -1.902985,0.233002 -3.417999,1.269012c-1.515991,1.03598 -4.144012,1.829987 -4.299011,4.21701s-0.875977,2.468964 -0.953979,3.58197c-0.076996,1.113037 0.242004,4.140015 -0.475006,5.171021c-0.716003,1.031006 0.078003,3.893005 1.510986,5.484009c1.433014,1.592987 2.943024,3.746979 3.897003,3.587006c0.953003,-0.159027 3.335999,-1.670013 4.134003,-0.319c0.799011,1.350983 0.959015,1.592987 1.355011,2.386993c0.397003,0.793976 1.186981,-0.154999 1.824982,-1.19101c0.639008,-1.035004 1.675018,-1.915985 2.392029,-3.503998c0.715973,-1.588013 1.984985,-2.146027 2.860992,-2.304993c0.876007,-0.160034 2.22699,-3.024994 3.102997,-5.016022c0.876007,-1.989014 1.747986,-5.169983 2.546997,-5.489014c0.798004,-0.31897 1.113007,-2.304993 1.433014,-3.180969s0.870972,-0.23703 1.350983,-0.95401c0.479004,-0.716003 0.562012,-2.230988 1.515991,-2.468994c0.953003,-0.237 2.304016,-0.071991 3.180023,-0.314026c0.876984,-0.241974 1.113983,-1.834991 1.43399,-1.911957s3.181,0.163971 3.737,-1.985016s8.277008,-4.294006 12.891998,2.942993c4.613007,7.237 4.608002,7.712006 5.088013,9.542023c0.478973,1.829956 0.715973,7.396973 1.592987,9.623993c0.876007,2.227997 4.144012,9.076996 4.618011,15.359985c0.474976,6.283997 1.824982,5.563019 2.144989,7.475006s0.395996,0.557007 -0.160004,1.35498s0.484009,1.511017 1.355011,1.27301c0.871979,-0.237 0.630005,2.22699 0.712006,2.943024c0.082001,0.715973 1.117981,2.230988 2.071991,2.86496c0.953003,0.63501 0.628998,4.057037 -0.242004,5.011017c-0.872009,0.95401 -0.867004,4.139008 -0.712006,6.681s0.634003,6.763 0.076996,8.27301s-0.313995,4.13501 -1.350983,4.453979s-1.984009,-0.314972 -2.46402,-1.587982c-0.478973,-1.27301 -4.221985,-1.984985 -4.85498,-1.113983c-0.63501,0.871979 -5.567017,2.623962 -3.578003,3.974976c1.98999,1.35199 0.639984,2.468994 -0.634003,3.423004s-1.592987,0.479004 -1.433014,3.104004c0.159027,2.623993 0.232025,2.463989 0.475006,3.895996c0.240997,1.433014 -1.195984,3.263 -4.139984,5.092987s-6.046021,1.355011 -6.443024,6.046997c-0.395996,4.690002 1.475006,8.716003 -0.423981,9.665009c-2.095001,1.050018 -1.565002,2.428009 -1.565002,3.222015s-0.397003,2.468994 -1.113007,2.705994c-0.71701,0.237 -1.19101,2.304993 -1.031006,2.623993c0.158997,0.319 -1.27298,0.552002 -1.98999,0.634003c-0.716003,0.082001 -0.721008,-0.240997 -1.515015,1.670013c-0.793976,1.911987 -0.957977,1.984985 -1.112976,2.942993c-0.154999,0.958984 0.087006,0.794983 -0.712006,1.43399s-0.160004,0.479004 -0.160004,0.479004l-133.802002,0.078003z" stroke="#000000" stroke-width="5"/>
 </g>
</svg>