<?xml version="1.0" encoding="utf-8"?>
<!-- Generator: Adobe Illustrator 18.0.0, SVG Export Plug-In . SVG Version: 6.00 Build 0)  -->
<!DOCTYPE svg PUBLIC "-//W3C//DTD SVG 1.1//EN" "http://www.w3.org/Graphics/SVG/1.1/DTD/svg11.dtd">
<svg version="1.1" id="Layer_1" xmlns="http://www.w3.org/2000/svg" xmlns:xlink="http://www.w3.org/1999/xlink" x="0px" y="0px"
	 viewBox="79 0 480.5 480" enable-background="new 79 0 480.5 480" xml:space="preserve">
<title>Michigan Map Outline</title>
<g>
	<title>Layer 1</title>
	<path id="path1390" fill="#330000" stroke="#000066" stroke-width="5" d="M150.7,167.8c2.9-2.6,6.6-3.1,11.5-3.9
		c4.9-0.8,6.4-2.9,8.4-4.9c1.9-1.9,6.4-6.2,11.1-4.5c4.7,1.8,10.3-0.4,12.1-1.8c1.8-1.4,4.7-1.8,6-4.1c1.4-2.3,2.1-2.3,4.7-2.1
		s4.7-1.8,5.1-3.5c0.4-1.8,1.8-3.7,3.5-4.5c1.8-0.8,2.9-1.8,3.9-3.3c1-1.6,2.7-1.9,3.7-2.1s2.5-1.2,5.1-3.9c2.5-2.7,4.1-5.1,7.2-5.3
		s3.3-0.8,4.7-1.9c1.4-1.2,4.9-2.3,9.7-1.9c4.9,0.4,2.3,0,4.9,0.4c2.5,0.4,2.3,3.1-0.4,3.3c-2.7,0.2-2.9,0.8-5.1,0.6
		c0.2,1.6-0.6,2.3-2.3,3.5c-1.8,1.2-3.7,2.1-4.9,3.5c-1.2,1.4-0.8,1.9-2.1,2.1c-1.4,0.2-2.1,0.8-2.3,2.5c-0.2,1.8-0.4,1-1.2,1.8
		c-0.8,0.8-0.4,0.8-0.8,2.3c-0.4,1.6-0.8,0.2-1.8,1c-1,0.8-0.8,2.9-1,3.7s-0.8,1-2.5,1.4c-0.4,2.5-0.8,3.7-1.4,4.9
		c-0.6,1.2-1,2.3-0.6,4.3c0.4,1.9,0.2,1.8-0.2,2.7s0.4,1.9,1.4,0.8c1-1.2,0.6-2.5,1.8-3.7s3.1-2.1,3.9-3.7c0.8-1.6,2.7-1.4,3.7-2.7
		c1-1.4,3.7-0.8,1.6,0.6c-2.1,1.4-1.9,1.8-2.9,1.9s-0.4,0.6-0.8,1.8c-0.4,1.2-1.4,0.8-0.4,1.2c1,0.4,0.8,0.4,1.6-0.2
		c0.8-0.6,0.4,0.2,0.8-1.4c0.4-1.6,0.2-1.6,1.8-1.8c1.6-0.2,3.9-0.4,6.4,0c2.5,0.4,1.6,0.6,2.5,0.4c1-0.2,1,0.6,0,1.9
		c-1,1.4-1,2.7,0,1.8c1-1,1.2,0,1.6-1.6c0.4-1.6-0.4-1.4,0.4-1.6c0.8-0.2,0.6-0.2,1,1.2c0.4,1.4,1.2,1.8,1.2,0.8s-1.2-1.9-0.4-1.8
		c2.3,0.4,3.5-0.8,3.9,1.2c0.4,1.9,0.8,2.9,2.9,2.7s2.1,0.4,2.3,2.5s0.6,1.2,1.9,2.3s1.4,0.6,1.6,1.9s-0.8,1.8,0.6,1.9
		c1.4,0.2,1.9,0.6,2.7,1.9c0.8,1.4,1.8,1.2,1.8,4.1s3.3,2.5,4.1,2.7c0.8,0.2,3.1,0.4,4.3-0.4c1.2-0.8,2.5,0,4.3-1.6
		c1.8-1.6,3.9-1.8,3.7,0.6s2.1,1.9,3.1,2.1c1,0.2,1.4,0.4,2.1,0c0.8-0.4,0,0,0.8-1.4c0.8-1.4,0.8-1.9,1.9-0.8c1.2,1.2,1,1.2,2.1,1.8
		c1.2,0.6,1.9,1.9,2.5,1.4c0.6-0.6,1-1,1.6-2.5c0.6-1.6,1.6-2.5,2.9-2.9c1.4-0.4,1.4-2.5,2.7-2.5c1.4,0,2.1-0.6,2.1-0.6
		s0.1-0.6,1.8-1.6c1-0.6,2.3-1.6,3.3-1.9s1.4-0.8,1.4-1.6c0-0.8,1.6-1.4,2.7-1.2c1.2,0.2,4.6-0.1,7-0.7c2.4-0.6,8.8-0.4,10.7-0.4
		c1.9,0,7.8,0,11.8-2.9c4-2.9,6.1-3,8.6-3c2.5,0,2.5,0.5,3.6-0.2c1.1-0.7,3.1-1.5,1.6,2c-1.5,3.5-1.1,9.4-1,11.3
		c0.1,1.9,1.5,1.9,1.7,2.1c0.2,0.2,5.6,0.4,6.2,0.1c0.6-0.2,0,1,0.6,1.2c0.6,0.2,1.6,0,3.2-0.7c1.6-0.7,2.6-2.6,4-2.5
		c1.4,0.1,2.4,1,2.4,2.7c0,1.7,1.2,2,3.1,0.2c1.9-1.7,1.2-0.9,2.1-1s0-0.9,0.6-1.7c0.6-0.9,1.6-0.6,2.2-0.7c0.6-0.1,0.2-0.4,0.7-1.2
		c0.5-0.9,0.6-0.2,1.1,0s0.6,0.9,1.2,1.6c0.6,0.7,0.9,1.5,1.4,2.4c0.5,0.9,1.4,2.7,2,3.7c0.6,1,0.5,1.5,0.4,2.2s1.2,1.4,1.6,0.1
		s1-0.6-0.1-2c-1.1-1.4-1.4-1.9-1.9-2.7c-0.5-0.9-0.9-1.5-1-2.2c-0.1-0.7,0-0.2-0.9-1.1c-0.9-0.9-1.4-0.7-1.1-1.7
		c0.2-1,0.9-0.4,1.4-1.2c0.5-0.9,0.7-1.5,2.5-0.7c1.7,0.7,3.8,0.4,2.5,2.5c-1.4,2.1-2.6,3.4-1.1,5c1.5,1.6,2.4,3.6,2,4.5
		c-0.4,0.9,0.1,1.9,0.4,2.5c0.2,0.6,0.1,1.6-1.7,1.7c-1.9,0.1-3.8,2.1-1.9,2.6c2,0.5,1.5,0.5,2.9,0.4s1.5,1.9,2.2,1.9
		s4.6-0.5,1.5,1.1c-2.1,1.1,2,3.3,2.7,3.7c0.7,0.4,0.4,0.9,1.4,1.2c1,0.4,1.4-0.4,2.1,0.2c0.7,0.6,1,1.6,0,2.2
		c-1,0.6,0.2,0.6-1.2,0.2c-1.5-0.4-1.6-2.1-2.2-0.4c-0.6,1.7-1.2,1.4-2.2,0.2s-1.5-1.4-3.2-0.1c-1.7,1.2-2.4,0.5-4.1-0.1
		c-1.7-0.6-2.2-0.2-3.1,0.4s-2,0.5-1.5,1.2c0.5,0.7,1.9,1.7,0.6,1.6c-1.2-0.1-2.7,0-2.2-1.1s1.9-0.9,0.7-2.1c-1.1-1.2-1.9-0.4-2.6,0
		c-0.7,0.4-2.7,1.1-2.7-0.4s-0.5-0.9-1.6-0.9s-2.6,1.1-2.6,0.1s0.2-1.9-0.7-0.7s-1.1,0.6-1,2.2c0.1,1.6-1.4,1.7-1,3.5
		s0.5,1.2,0.4,2.9s-0.1,1.5,0.7,1.5s-0.1,1.9-0.9,1.6c0,0-2.7,0-3.2-1c-0.5-1-2-2.1-2.1-2.5c-0.1-0.4-0.3-0.5-1.4-0.7
		c-1.1-0.2-1.1-0.5-1.6-1.2c-0.5-0.7,0.1-0.7-1-1c-1.1-0.2-1.6-0.1-1-1c0.6-0.9,0.5-0.6,1.5-0.4s3.1-0.2,0.9-1.1s-2.4,0.4-3.8-0.2
		c-1.5-0.6-2.6-0.1-3.8-0.9s-1.4-1.4-3.7-1c-2.4,0.4-3.7-0.5-5-1.4c-1.2-0.9-4.3,0-5.5,0.2c-1.1,0.2-2.6-0.4-4.1,2
		c-1.5,2.4-2.8,5.6-6.8,5.2c-4-0.4-3.2-0.5-5.1,1c-1.9,1.5-4.5,1.5-3.5-0.1c1-1.6,1-2.2-1.1-1.7s-0.6,1.2-3.1,1.4
		c-2.5,0.1-1.6,0.6-2.7,1c-1.1,0.4-1,0-2-0.2c-1-0.2-0.6-0.1-1.1,0.7c-0.5,0.9-1,0.5-2.1,1c-1.1,0.5-1.6,1.6-1.7,3.1
		c-0.1,1.5-0.2,5.2-2.5,5.3s0,1.7-3.7,2.1c-2.4,0.2-1.6,1.1-1.5,1.2c0.1,0.1-0.1,1-0.7,1c-0.6,0-1.4,0.7-1.1,1.6
		c0.2,0.9-0.2,1.5-1,1.6c-0.7,0.1-0.7,1-0.6,2c0.1,1,0.6,1.2-1.2-0.1c-1.9-1.4-2.9-3.1-1-2.9c1.9,0.2,1.2-0.5,1.2-1.4
		c0-0.9,1.1-1.2,1-2.2c-0.2-2.2,3.7-0.4,2.5-2.4c-0.9-1.5,1-3.6,1.5-4.3c0.5-0.7-1.4-3.3-3.1-0.6s-3.5,3.1-4.5,2.2
		c-2.3-2-3.2-2.6-3.1,0.7c0.1,3.2-0.5,2.6-1.1,3.5c-0.6,0.9-1.6,1.7-1.4,2.6s-0.6,0.6-2.2,1c-3.8,0.9-1.7,0-2.4-2.4
		c-0.1-2-1.1-3.7,1-5.2c1-0.7-0.2-6.6-1.7-2.6c0,0-1.1,1.4-1.1,2.7s-1.7,0.6-1.5,3.5c0.2,2.9-0.7,3.8-2.4,5.5
		c-1.6,1.6-3.8,2-3.7,4.2s-2.4,1.6-2.4,4.7c0,3.1-1.9,3.7-1.9,5.2c0,1.5-1.4,3.2-2,4.3c-0.6,1.1-2.1,2.6-2.2,4.3s-1,3.1-2.1,4.5
		c-0.9,1.1-3.7,3.2-3.7,6.2c0,0.6-2.4,1-2.9,0.3s-4.3-4.2-2.2-6.4c2.1-2.1,2.5-4.5,2.6-6.3s-1.2-3.6-2.9-1.8s-6.7,2.4-5.2-1.9
		c1.5-4.3,3.9-5.3,1.4-7.8c-2.5-2.5-0.5-4.1,0.1-5.6c0.6-1.5-2-6.9-5.8-6.9s-4.1,0.4-5.8-0.1c-1.4-0.3-2.1-3.1-1-4s1.3-9.4-5.8-8.1
		c-7.2,1.3-15.5,0.2-17.9-0.5c-2.4-0.7-5.6,1-7.8-1.5c-2.2-2.5-5.7-3.6-9.4-4.3c-2.3-0.4-2.8-1.8-6.9-2.9c-2.8-0.7-6.1-1.8-9.9-3.2
		c-5.5-2.1-6.9-0.8-8.2-2c-2-2-4.9-2-6.8-2.5c-2.5-0.7-7.8-0.9-6.4-4.3c1.5-3.7-1-6.9-2.1-7.3c-1.6-0.5-2.9-0.5-5.9-1.6
		C150.3,169.7,150.2,168.3,150.7,167.8L150.7,167.8L150.7,167.8z"/>
	<path id="path1414" fill="#330000" stroke="#000066" stroke-width="5" d="M318.9,426.8c0.1-2.7,2.5-7.8,5.6-11.5
		c3.2-3.7,5.4-15.1,6-22.4c0.3-3.4,0.8-7,0.9-10.1c7.6-2.1,2.4-1.3-0.1-1.7c0-1.2-0.2-5.5-0.7-7.7c-0.4-1.6-1.7-5.1-1.3-7.2
		c2.8-0.4,2.6-1.5-1-1.1c-0.5-1.6-1.2-3-1.9-4.6c-2-4.1-0.9-2.9,0.3-3.3c1.2-0.4,3.7-3.6,0-2s-2.7,0-3.5-1.3s-1.5-1.9-1.7-2.9
		s0.8-1.8,1.4-2c0.6-0.2,1-2.4-0.6-1.7c-1.6,0.7-2.3-0.6-2.8-2.7c-0.5-2.1-1.8-5.5-2.9-6.8c-1.1-1.4-3.3-5,0.7-8.4
		c4-3.3,2.5-8.6,2.1-10.1c-0.5-1.5-1.3-3.7-2.1-4.6c-0.9-1-2-2.8-1.6-3.1s2.9,2.1,1.8-1c4.2-5.3-2,0.4-2.1,0.1
		c-0.2-0.4-0.5-0.8,0-1.3c0.8-0.8,2.2-1.4,3.1-3c0.9-1.7,2.1-3,2.7-5.6c0.6-2.5,1.5-3.2,2.1-5.2c0.6-2,0.4-2.7,1.8-2.6
		c1.4,0.1,2.5-1.2,1-1.8c0,0-1.6,0.1-1-2.2c0.6-2.3,0.5-3,0.3-4.2c-0.2-1.2-0.3-3.6,0.4-3.4c0.7,0.2,2.8,0.3,0.6-1.4
		c-2.2-1.7-0.9-1.5-1-2c-0.1-0.5-0.2-0.5-1-0.8c-0.7-0.3-0.2-2.9,1.4-1.5c1.7,1.4,2.2,1.6,3.4,1.5c1.2-0.1,2.9-1.6,0.6-2
		c-2.2-0.4-2.5-0.6-2.5-1s-0.9-1.2-1.6-0.9c-0.7,0.3-1.4-2,0.5-1.1c0.9,0.4,1-0.2,1.1-0.6c0.2-0.4,1.5-0.6,1.7,0.1
		c0.2,0.7,0.4,1,0.6,1.7c0.2,0.7,0.8,1.1,1.5,0.8c0.7-0.3,1.8-0.7,0.9-1.8s-0.7-0.2-1.4-0.6c-0.6-0.5-0.4-1-0.1-1.5
		c0.3-0.6,0-1.2,0.3-2.6c0.3-1.4,0.5-3.3-0.2-4.1c-0.6-0.7-0.2-3.1,0.8-2.9s2.5,1.6,1.8,1.4c-0.7-0.2-1.4,1.3-0.6,1.5
		c0.7,0.2,2.3,0.7,2.9,0.2s1-1.5,0.2-2.4c-0.9-0.9-0.7-2.4-0.2-3c0.5-0.6,1.2-0.8,2,0.1c0.8,0.9,1.7,0.6,1.7,1.6s1,1.8,1.3,0.2
		c0.3-1.5,0.6-2.3,1-2.9c0.4-0.6,1-2.3,1.9-2.3c1,0,0.5-0.6,0.5-2.1s1-2.4,1.7-3.3c0.6-1,0.8-2.5,1-3.5s1-1.6,2-1.8
		c1-0.2,1.4,0.5,0.5,1.3c-1,0.8-1.4,1.6-0.5,2.9s0.9,2.9,0.4,3.9c-0.5,1-2.7,3.2-1.1,3.3c1.6,0.2,1.4,1.4,0.6,2.8s-1.7,3.3-1.2,5.5
		s0.6,2.9,1.4,3.4c0.9,0.5,0.2,0.6,1-0.2c0.7-0.7,1.1-1.3,1.6,0.4c0.5,1.7-0.1,1.3,1.2,0.7c1.3-0.6,1.3-1.3,1.4-2.4
		c0.1-1,1-1.3,1.4-2.3s0.5-1.6,0.7-2.4c0.2-0.8,1.3-0.9,1.5,1.1s0.2,2.8,1.3,2.6s0.9-0.6,1.2-0.8c0.2-0.2,0.5,0.2,1,0.7
		c0.5,0.6,0.8,1,1,0c0.2-1-0.7-1.4-1.5-2c-0.8-0.6-1.3-1-1-2.2s0.6-1.4,0-2.4s-0.8-0.8-1.1-1.5c-0.3-0.7-0.3-1.8-0.3-3.2
		s-0.9-2.9,0.1-3c1-0.1,1.6,0.7,1.7,2.2c0.2,1.5,0.6,1.9,0.6,3.1s0.2,5.5,1,5.5s1.3-1.1,1.2-2.5c-0.1-1.4-0.6-2.2-0.5-3.9
		c0.2-1.7,0.1-3.3-1.4-5.2c-1.4-2-2.9-3.7-2.9-5.2c0-1.6-1-4.2,0.3-5.8s2.2-3.9,3.7-1.6s1.4,1.4,2,1.9s1.3,1.4,1.1,2.3
		c-0.2,1-0.4,1.8,0.4,2.1c0.8,0.3,1.8,1,1.6-0.2c-0.2-1.2-0.2-1-0.5-1.9s0-1.2-0.7-1.5c-0.7-0.3-0.6-1.9,0.6-0.9
		c1.3,1,1.1,0.9,2.1,1.7c1,0.9,4.5,0.1,2.4-0.8c-2.1-0.9-1.8-1.4-1.8-1.9s-0.4-0.3-1.9-0.6c-1.5-0.3-2.2-0.2-2.7-1
		c-0.5-0.9-0.2-1.5-1.2-1.3c-1,0.2-0.2-1.3,0.8-1.7c1-0.5,1.7-1.1,3.1-0.8c1.4,0.3,2-0.4,3.5-0.2c1.5,0.2,2.1,0,2.9-0.9
		s1.8-0.8,0.2-1.8c-1.5-1-0.6-1-0.6-1.3s-0.3-0.2-1.6,0.1s-0.6,1.4-2.3-0.6c-1.7-1.9-2-2.5-2.5-4.1c-0.6-1.7-1.7-4.9,0.7-6.7
		c2.5-1.8,3.5-2.7,4.1-3.5c0.6-0.8,1.3-1.8,0.2-2.4s0.4-1.8,2.2-1.1c1.8,0.6,2.1,0.3,3,0.2c1-0.1,1,0.3,0.8-1
		c-0.2-1.4,0.6-2.8,3.3-0.2c2.7,2.6,3.7,1.7,4.9,2.2s2.9,1.3,3.6,2.4c0.7,1.1,3.1,1.4,5,0.4s4.9-0.4,7.1,1.2c2.1,1.6,2.3,2,2.5,4.1
		s1.7,3.6,5.6,3.4c3.9-0.2,4.4-0.1,5.9,2c1.5,2.1,4,1.6,5.2,1.8s3.1,1.4,4.5,1.8c1.4,0.4,2.1,1.3,2.9,0.7s1.4-0.6,2.1-0.4
		c0.7,0.2,1.9,1,1,1.4s-0.2,1.4,1,1.1c1.3-0.2,1.5-0.8,1.4,1c-0.2,1.8-0.1,1,0.2,2.1c0.3,1.1,0.4,1.4,1.4,2.6c1,1.3,1.2,1.4,2.1,2.8
		s1.5,3.1-0.1,3.4c-1.6,0.3-1.8,0.3-2.4,1.8c-0.6,1.4-1.5,1.8-2.2,2.5c-0.7,0.6-0.4,2.2,2,4.1c2.4,1.9,4.1,3.4,5.4,4.7
		s1.7,6,1.9,8.3s0.6,4.1-0.7,5.7c-1.2,1.4-0.8,3.1-0.3,4c0.1,0.1,0.2,0.3,0.3,0.4c-5,2.9-1.4,1.9,0.8,2.7c0.4,1.2,1.3,2.8,1.1,3.5
		c-0.3,1.7-1.4,3.2-1.6,3.2c-1.6,0-1.5,1-1.5,2.4c0,0.8-1,1.5-1.3,0.7s-0.2-2-0.8-2.1c-0.6-0.1,0.2-0.6-0.6-0.1s-1.5,0.2-1.3,2.2
		c0.2,2-1.4,3.1-1.3,5.4c0.2,2.3,1.4,6-1.9,8c0,0-2.1,0.5-2.9,2.6c-0.7,2.1-1.9,0.2-3.4,1.3c-1.5,1-4.1,1.8-4.3,4.2s-0.9,2.5-1,3.6
		c-0.1,1.1,0.2,4.1-0.5,5.2c-0.7,1,0.1,3.9,1.5,5.5c1.4,1.6,2.9,3.7,3.9,3.6c1-0.2,3.3-1.7,4.1-0.3c0.8,1.4,1,1.6,1.4,2.4
		c0.4,0.8,1.2-0.2,1.8-1.2c0.6-1,1.7-1.9,2.4-3.5c0.7-1.6,2-2.1,2.9-2.3c0.9-0.2,2.2-3,3.1-5c0.9-2,1.7-5.2,2.5-5.5
		c0.8-0.3,1.1-2.3,1.4-3.2s0.9-0.2,1.4-1c0.5-0.7,0.6-2.2,1.5-2.5c1-0.2,2.3-0.1,3.2-0.3c0.9-0.2,1.1-1.8,1.4-1.9s3.2,0.2,3.7-2
		s8.3-4.3,12.9,2.9c4.6,7.2,4.6,7.7,5.1,9.5c0.5,1.8,0.7,7.4,1.6,9.6c0.9,2.2,4.1,9.1,4.6,15.4c0.5,6.3,1.8,5.6,2.1,7.5
		s0.4,0.6-0.2,1.4s0.5,1.5,1.4,1.3c0.9-0.2,0.6,2.2,0.7,2.9c0.1,0.7,1.1,2.2,2.1,2.9c1,0.6,0.6,4.1-0.2,5c-0.9,1-0.9,4.1-0.7,6.7
		s0.6,6.8,0.1,8.3s-0.3,4.1-1.4,4.5s-2-0.3-2.5-1.6c-0.5-1.3-4.2-2-4.9-1.1c-0.6,0.9-5.6,2.6-3.6,4c2,1.4,0.6,2.5-0.6,3.4
		s-1.6,0.5-1.4,3.1c0.2,2.6,0.2,2.5,0.5,3.9c0.2,1.4-1.2,3.3-4.1,5.1s-6,1.4-6.4,6c-0.4,4.7,1.5,8.7-0.4,9.7
		c-2.1,1.1-1.6,2.4-1.6,3.2s-0.4,2.5-1.1,2.7c-0.7,0.2-1.2,2.3-1,2.6c0.2,0.3-1.3,0.6-2,0.6c-0.7,0.1-0.7-0.2-1.5,1.7
		c-0.8,1.9-1,2-1.1,2.9c-0.2,1,0.1,0.8-0.7,1.4s-0.2,0.5-0.2,0.5L318.9,426.8z"/>
</g>
<rect x="586" y="465" fill="none" width="54" height="15"/>
<g>
	<path fill="#330000" stroke="#000066" stroke-miterlimit="10" d="M288.2,317.5h7.4v-54.6h-7.4V317.5z M245,317.5h6.9l2.1-37.6
		c0.4,3.1,0.8,6,1.3,8.8c0.5,2.8,1,5.5,1.6,8.3l4.3,20.6h5l4.6-23.8l0.4-1.9l0.9-5c0.1-0.7,0.3-1.5,0.4-2.4c0.2-1,0.3-2.1,0.5-3.4
		l0.2-1.1c0,0.3,0,0.5,0.1,0.6c0,0.2,0,0.3,0,0.3l0.2,6.7l0.3,7.3c0,0.4,0,1,0.1,1.7c0,0.7,0.1,1.5,0.1,2.4l1.2,18.5h7l-5-54.6h-6.4
		l-4.3,21.9l-0.8,3.9l-0.9,5.9l-1,6.3c0,0.1,0,0.3-0.1,0.5c0,0.2-0.1,0.5-0.1,0.9c-0.4-3.1-0.8-6-1.3-8.8s-1-5.6-1.6-8.4l-4.8-22.3
		h-6.3L245,317.5z M218.7,331.1h7.1v-68.2h-7.1V331.1z M193.7,262.2c-5.6,0-9.7,2.4-12.4,7.1s-4,12-4,21.8
		c0,18.1,5.5,27.1,16.6,27.1c2.2,0,4.2-0.5,5.9-1.5v-6.8c-1.7,0.8-3.1,1.1-4.4,1.1c-6.9,0-10.4-6.7-10.4-20.2c0-3.7,0.2-7,0.6-9.7
		c0.4-2.7,1-5,1.8-6.8s1.8-3.1,3.1-4c1.2-0.9,2.7-1.3,4.5-1.3c1.3,0,2.9,0.5,4.7,1.4v-6.6C197.8,262.7,195.7,262.2,193.7,262.2z
		 M150.3,269.3h8.5v48.2h7.2v-48.2h8.2v-6.4h-23.9V269.3z"/>
</g>
<polygon fill="#330000" stroke="#000066" stroke-miterlimit="10" points="368,310.1 355.6,302.1 342,307.6 345.9,293.4 336.3,282.1 
	351.1,281.4 358.8,268.9 364.1,282.7 378.4,286.2 366.9,295.4 "/>
</svg>
